<svg xmlns="http://www.w3.org/2000/svg" viewBox="0 0 360 872" fill="none" role="img" aria-label="Team member silhouette as a constellation">
  <defs><filter id="g" x="-60%" y="-60%" width="220%" height="220%"><feGaussianBlur stdDeviation="2.2" result="b"/><feMerge><feMergeNode in="b"/><feMergeNode in="SourceGraphic"/></feMerge></filter></defs>
  <g opacity="0.74">
    <polygon points="224.3,20.4 187.9,18.0 184.2,26.5 153.9,31.3 115.1,76.2 115.1,119.9 123.6,144.2 139.3,153.9 152.7,186.7 147.8,207.3 136.9,218.2 54.4,247.3 18.0,282.5 19.2,329.9 36.2,346.9 18.0,412.4 18.0,426.9 27.7,433.0 24.1,474.3 18.0,481.6 19.2,650.2 71.4,664.8 69.0,676.9 56.8,678.1 59.3,702.4 99.3,686.6 119.9,689.1 115.1,704.8 90.8,713.3 70.2,731.5 87.2,757.0 115.1,749.7 129.6,738.8 143.0,741.2 136.9,854.1 332.3,833.5 340.8,822.5 342.0,686.6 269.2,686.6 271.6,676.9 328.7,651.4 323.8,600.5 328.7,582.3 337.1,576.2 334.7,554.4 342.0,545.9 342.0,487.6 334.7,481.6 335.9,339.6 318.9,287.4 298.3,266.8 253.4,243.7 234.0,212.2 238.9,197.6 258.3,191.5 266.8,133.3 260.7,126.0 264.3,94.4 248.6,61.7 248.6,48.3" fill="#5eead4" fill-opacity="0.05" stroke="none"/>
    <line x1="224.3" y1="20.4" x2="187.9" y2="18.0" stroke="#5eead4" stroke-width="0.9" stroke-opacity="0.18"/>
    <line x1="187.9" y1="18.0" x2="184.2" y2="26.5" stroke="#5eead4" stroke-width="0.9" stroke-opacity="0.18"/>
    <line x1="184.2" y1="26.5" x2="153.9" y2="31.3" stroke="#5eead4" stroke-width="0.9" stroke-opacity="0.18"/>
    <line x1="153.9" y1="31.3" x2="115.1" y2="76.2" stroke="#5eead4" stroke-width="0.9" stroke-opacity="0.18"/>
    <line x1="115.1" y1="76.2" x2="115.1" y2="119.9" stroke="#5eead4" stroke-width="0.9" stroke-opacity="0.18"/>
    <line x1="115.1" y1="119.9" x2="123.6" y2="144.2" stroke="#5eead4" stroke-width="0.9" stroke-opacity="0.18"/>
    <line x1="123.6" y1="144.2" x2="139.3" y2="153.9" stroke="#5eead4" stroke-width="0.9" stroke-opacity="0.18"/>
    <line x1="139.3" y1="153.9" x2="152.7" y2="186.7" stroke="#5eead4" stroke-width="0.9" stroke-opacity="0.18"/>
    <line x1="152.7" y1="186.7" x2="147.8" y2="207.3" stroke="#5eead4" stroke-width="0.9" stroke-opacity="0.18"/>
    <line x1="147.8" y1="207.3" x2="136.9" y2="218.2" stroke="#5eead4" stroke-width="0.9" stroke-opacity="0.18"/>
    <line x1="136.9" y1="218.2" x2="54.4" y2="247.3" stroke="#5eead4" stroke-width="0.9" stroke-opacity="0.18"/>
    <line x1="54.4" y1="247.3" x2="18.0" y2="282.5" stroke="#5eead4" stroke-width="0.9" stroke-opacity="0.18"/>
    <line x1="18.0" y1="282.5" x2="19.2" y2="329.9" stroke="#5eead4" stroke-width="0.9" stroke-opacity="0.18"/>
    <line x1="19.2" y1="329.9" x2="36.2" y2="346.9" stroke="#5eead4" stroke-width="0.9" stroke-opacity="0.18"/>
    <line x1="36.2" y1="346.9" x2="18.0" y2="412.4" stroke="#5eead4" stroke-width="0.9" stroke-opacity="0.18"/>
    <line x1="18.0" y1="412.4" x2="18.0" y2="426.9" stroke="#5eead4" stroke-width="0.9" stroke-opacity="0.18"/>
    <line x1="18.0" y1="426.9" x2="27.7" y2="433.0" stroke="#5eead4" stroke-width="0.9" stroke-opacity="0.18"/>
    <line x1="27.7" y1="433.0" x2="24.1" y2="474.3" stroke="#5eead4" stroke-width="0.9" stroke-opacity="0.18"/>
    <line x1="24.1" y1="474.3" x2="18.0" y2="481.6" stroke="#5eead4" stroke-width="0.9" stroke-opacity="0.18"/>
    <line x1="18.0" y1="481.6" x2="19.2" y2="650.2" stroke="#5eead4" stroke-width="0.9" stroke-opacity="0.18"/>
    <line x1="19.2" y1="650.2" x2="71.4" y2="664.8" stroke="#5eead4" stroke-width="0.9" stroke-opacity="0.18"/>
    <line x1="71.4" y1="664.8" x2="69.0" y2="676.9" stroke="#5eead4" stroke-width="0.9" stroke-opacity="0.18"/>
    <line x1="69.0" y1="676.9" x2="56.8" y2="678.1" stroke="#5eead4" stroke-width="0.9" stroke-opacity="0.18"/>
    <line x1="56.8" y1="678.1" x2="59.3" y2="702.4" stroke="#5eead4" stroke-width="0.9" stroke-opacity="0.18"/>
    <line x1="59.3" y1="702.4" x2="99.3" y2="686.6" stroke="#5eead4" stroke-width="0.9" stroke-opacity="0.18"/>
    <line x1="99.3" y1="686.6" x2="119.9" y2="689.1" stroke="#5eead4" stroke-width="0.9" stroke-opacity="0.18"/>
    <line x1="119.9" y1="689.1" x2="115.1" y2="704.8" stroke="#5eead4" stroke-width="0.9" stroke-opacity="0.18"/>
    <line x1="115.1" y1="704.8" x2="90.8" y2="713.3" stroke="#5eead4" stroke-width="0.9" stroke-opacity="0.18"/>
    <line x1="90.8" y1="713.3" x2="70.2" y2="731.5" stroke="#5eead4" stroke-width="0.9" stroke-opacity="0.18"/>
    <line x1="70.2" y1="731.5" x2="87.2" y2="757.0" stroke="#5eead4" stroke-width="0.9" stroke-opacity="0.18"/>
    <line x1="87.2" y1="757.0" x2="115.1" y2="749.7" stroke="#5eead4" stroke-width="0.9" stroke-opacity="0.18"/>
    <line x1="115.1" y1="749.7" x2="129.6" y2="738.8" stroke="#5eead4" stroke-width="0.9" stroke-opacity="0.18"/>
    <line x1="129.6" y1="738.8" x2="143.0" y2="741.2" stroke="#5eead4" stroke-width="0.9" stroke-opacity="0.18"/>
    <line x1="143.0" y1="741.2" x2="136.9" y2="854.1" stroke="#5eead4" stroke-width="0.9" stroke-opacity="0.18"/>
    <line x1="136.9" y1="854.1" x2="332.3" y2="833.5" stroke="#5eead4" stroke-width="0.9" stroke-opacity="0.18"/>
    <line x1="332.3" y1="833.5" x2="340.8" y2="822.5" stroke="#5eead4" stroke-width="0.9" stroke-opacity="0.18"/>
    <line x1="340.8" y1="822.5" x2="342.0" y2="686.6" stroke="#5eead4" stroke-width="0.9" stroke-opacity="0.18"/>
    <line x1="342.0" y1="686.6" x2="269.2" y2="686.6" stroke="#5eead4" stroke-width="0.9" stroke-opacity="0.18"/>
    <line x1="269.2" y1="686.6" x2="271.6" y2="676.9" stroke="#5eead4" stroke-width="0.9" stroke-opacity="0.18"/>
    <line x1="271.6" y1="676.9" x2="328.7" y2="651.4" stroke="#5eead4" stroke-width="0.9" stroke-opacity="0.18"/>
    <line x1="328.7" y1="651.4" x2="323.8" y2="600.5" stroke="#5eead4" stroke-width="0.9" stroke-opacity="0.18"/>
    <line x1="323.8" y1="600.5" x2="328.7" y2="582.3" stroke="#5eead4" stroke-width="0.9" stroke-opacity="0.18"/>
    <line x1="328.7" y1="582.3" x2="337.1" y2="576.2" stroke="#5eead4" stroke-width="0.9" stroke-opacity="0.18"/>
    <line x1="337.1" y1="576.2" x2="334.7" y2="554.4" stroke="#5eead4" stroke-width="0.9" stroke-opacity="0.18"/>
    <line x1="334.7" y1="554.4" x2="342.0" y2="545.9" stroke="#5eead4" stroke-width="0.9" stroke-opacity="0.18"/>
    <line x1="342.0" y1="545.9" x2="342.0" y2="487.6" stroke="#5eead4" stroke-width="0.9" stroke-opacity="0.18"/>
    <line x1="342.0" y1="487.6" x2="334.7" y2="481.6" stroke="#5eead4" stroke-width="0.9" stroke-opacity="0.18"/>
    <line x1="334.7" y1="481.6" x2="335.9" y2="339.6" stroke="#5eead4" stroke-width="0.9" stroke-opacity="0.18"/>
    <line x1="335.9" y1="339.6" x2="318.9" y2="287.4" stroke="#5eead4" stroke-width="0.9" stroke-opacity="0.18"/>
    <line x1="318.9" y1="287.4" x2="298.3" y2="266.8" stroke="#5eead4" stroke-width="0.9" stroke-opacity="0.18"/>
    <line x1="298.3" y1="266.8" x2="253.4" y2="243.7" stroke="#5eead4" stroke-width="0.9" stroke-opacity="0.18"/>
    <line x1="253.4" y1="243.7" x2="234.0" y2="212.2" stroke="#5eead4" stroke-width="0.9" stroke-opacity="0.18"/>
    <line x1="234.0" y1="212.2" x2="238.9" y2="197.6" stroke="#5eead4" stroke-width="0.9" stroke-opacity="0.18"/>
    <line x1="238.9" y1="197.6" x2="258.3" y2="191.5" stroke="#5eead4" stroke-width="0.9" stroke-opacity="0.18"/>
    <line x1="258.3" y1="191.5" x2="266.8" y2="133.3" stroke="#5eead4" stroke-width="0.9" stroke-opacity="0.18"/>
    <line x1="266.8" y1="133.3" x2="260.7" y2="126.0" stroke="#5eead4" stroke-width="0.9" stroke-opacity="0.18"/>
    <line x1="260.7" y1="126.0" x2="264.3" y2="94.4" stroke="#5eead4" stroke-width="0.9" stroke-opacity="0.18"/>
    <line x1="264.3" y1="94.4" x2="248.6" y2="61.7" stroke="#5eead4" stroke-width="0.9" stroke-opacity="0.18"/>
    <line x1="248.6" y1="61.7" x2="248.6" y2="48.3" stroke="#5eead4" stroke-width="0.9" stroke-opacity="0.18"/>
    <line x1="248.6" y1="48.3" x2="224.3" y2="20.4" stroke="#5eead4" stroke-width="0.9" stroke-opacity="0.18"/>
    <circle cx="224.3" cy="20.4" r="1.7" fill="#5eead4" fill-opacity="0.5"/>
    <circle cx="187.9" cy="18.0" r="1.7" fill="#5eead4" fill-opacity="0.5"/>
    <circle cx="184.2" cy="26.5" r="1.7" fill="#5eead4" fill-opacity="0.5"/>
    <circle cx="153.9" cy="31.3" r="1.7" fill="#5eead4" fill-opacity="0.5"/>
    <circle cx="115.1" cy="76.2" r="1.7" fill="#5eead4" fill-opacity="0.5"/>
    <circle cx="115.1" cy="119.9" r="1.7" fill="#5eead4" fill-opacity="0.5"/>
    <circle cx="123.6" cy="144.2" r="1.7" fill="#5eead4" fill-opacity="0.5"/>
    <circle cx="139.3" cy="153.9" r="1.7" fill="#5eead4" fill-opacity="0.5"/>
    <circle cx="152.7" cy="186.7" r="1.7" fill="#5eead4" fill-opacity="0.5"/>
    <circle cx="147.8" cy="207.3" r="1.7" fill="#5eead4" fill-opacity="0.5"/>
    <circle cx="136.9" cy="218.2" r="1.7" fill="#5eead4" fill-opacity="0.5"/>
    <circle cx="54.4" cy="247.3" r="1.7" fill="#5eead4" fill-opacity="0.5"/>
    <circle cx="18.0" cy="282.5" r="1.7" fill="#5eead4" fill-opacity="0.5"/>
    <circle cx="19.2" cy="329.9" r="1.7" fill="#5eead4" fill-opacity="0.5"/>
    <circle cx="36.2" cy="346.9" r="1.7" fill="#5eead4" fill-opacity="0.5"/>
    <circle cx="18.0" cy="412.4" r="1.7" fill="#5eead4" fill-opacity="0.5"/>
    <circle cx="18.0" cy="426.9" r="1.7" fill="#5eead4" fill-opacity="0.5"/>
    <circle cx="27.7" cy="433.0" r="1.7" fill="#5eead4" fill-opacity="0.5"/>
    <circle cx="24.1" cy="474.3" r="1.7" fill="#5eead4" fill-opacity="0.5"/>
    <circle cx="18.0" cy="481.6" r="1.7" fill="#5eead4" fill-opacity="0.5"/>
    <circle cx="19.2" cy="650.2" r="3.0" fill="#aef7ec" fill-opacity="0.9" filter="url(#g)"/>
    <circle cx="71.4" cy="664.8" r="3.0" fill="#aef7ec" fill-opacity="0.9" filter="url(#g)"/>
    <circle cx="69.0" cy="676.9" r="1.7" fill="#5eead4" fill-opacity="0.5"/>
    <circle cx="56.8" cy="678.1" r="3.0" fill="#aef7ec" fill-opacity="0.9" filter="url(#g)"/>
    <circle cx="59.3" cy="702.4" r="3.0" fill="#aef7ec" fill-opacity="0.9" filter="url(#g)"/>
    <circle cx="99.3" cy="686.6" r="1.7" fill="#5eead4" fill-opacity="0.5"/>
    <circle cx="119.9" cy="689.1" r="3.0" fill="#aef7ec" fill-opacity="0.9" filter="url(#g)"/>
    <circle cx="115.1" cy="704.8" r="1.7" fill="#5eead4" fill-opacity="0.5"/>
    <circle cx="90.8" cy="713.3" r="1.7" fill="#5eead4" fill-opacity="0.5"/>
    <circle cx="70.2" cy="731.5" r="3.0" fill="#aef7ec" fill-opacity="0.9" filter="url(#g)"/>
    <circle cx="87.2" cy="757.0" r="1.7" fill="#5eead4" fill-opacity="0.5"/>
    <circle cx="115.1" cy="749.7" r="1.7" fill="#5eead4" fill-opacity="0.5"/>
    <circle cx="129.6" cy="738.8" r="1.7" fill="#5eead4" fill-opacity="0.5"/>
    <circle cx="143.0" cy="741.2" r="3.0" fill="#aef7ec" fill-opacity="0.9" filter="url(#g)"/>
    <circle cx="136.9" cy="854.1" r="3.0" fill="#aef7ec" fill-opacity="0.9" filter="url(#g)"/>
    <circle cx="332.3" cy="833.5" r="1.7" fill="#5eead4" fill-opacity="0.5"/>
    <circle cx="340.8" cy="822.5" r="1.7" fill="#5eead4" fill-opacity="0.5"/>
    <circle cx="342.0" cy="686.6" r="3.0" fill="#aef7ec" fill-opacity="0.9" filter="url(#g)"/>
    <circle cx="269.2" cy="686.6" r="3.0" fill="#aef7ec" fill-opacity="0.9" filter="url(#g)"/>
    <circle cx="271.6" cy="676.9" r="1.7" fill="#5eead4" fill-opacity="0.5"/>
    <circle cx="328.7" cy="651.4" r="1.7" fill="#5eead4" fill-opacity="0.5"/>
    <circle cx="323.8" cy="600.5" r="1.7" fill="#5eead4" fill-opacity="0.5"/>
    <circle cx="328.7" cy="582.3" r="1.7" fill="#5eead4" fill-opacity="0.5"/>
    <circle cx="337.1" cy="576.2" r="1.7" fill="#5eead4" fill-opacity="0.5"/>
    <circle cx="334.7" cy="554.4" r="1.7" fill="#5eead4" fill-opacity="0.5"/>
    <circle cx="342.0" cy="545.9" r="1.7" fill="#5eead4" fill-opacity="0.5"/>
    <circle cx="342.0" cy="487.6" r="1.7" fill="#5eead4" fill-opacity="0.5"/>
    <circle cx="334.7" cy="481.6" r="1.7" fill="#5eead4" fill-opacity="0.5"/>
    <circle cx="335.9" cy="339.6" r="1.7" fill="#5eead4" fill-opacity="0.5"/>
    <circle cx="318.9" cy="287.4" r="1.7" fill="#5eead4" fill-opacity="0.5"/>
    <circle cx="298.3" cy="266.8" r="1.7" fill="#5eead4" fill-opacity="0.5"/>
    <circle cx="253.4" cy="243.7" r="1.7" fill="#5eead4" fill-opacity="0.5"/>
    <circle cx="234.0" cy="212.2" r="1.7" fill="#5eead4" fill-opacity="0.5"/>
    <circle cx="238.9" cy="197.6" r="1.7" fill="#5eead4" fill-opacity="0.5"/>
    <circle cx="258.3" cy="191.5" r="1.7" fill="#5eead4" fill-opacity="0.5"/>
    <circle cx="266.8" cy="133.3" r="1.7" fill="#5eead4" fill-opacity="0.5"/>
    <circle cx="260.7" cy="126.0" r="1.7" fill="#5eead4" fill-opacity="0.5"/>
    <circle cx="264.3" cy="94.4" r="1.7" fill="#5eead4" fill-opacity="0.5"/>
    <circle cx="248.6" cy="61.7" r="1.7" fill="#5eead4" fill-opacity="0.5"/>
    <circle cx="248.6" cy="48.3" r="1.7" fill="#5eead4" fill-opacity="0.5"/>
    <text x="186.5" y="720.3" transform="rotate(-8 186.5 720.3)" text-anchor="middle" font-family="Georgia,'Times New Roman',serif" font-size="15" font-weight="700" letter-spacing="1.5" fill="#e6edf3" fill-opacity="0.4">J.B</text>
  </g>
</svg>